<svg xmlns="http://www.w3.org/2000/svg" xmlns:xlink="http://www.w3.org/1999/xlink" width="100" height="100" viewBox="0 0 100 100">
    <defs>
        <path id="a" d="M36.826 2.222l-28.82 16.64A15.73 15.73 0 0 0 .139 32.486v33.282c0 5.62 3 10.813 7.867 13.624l28.82 16.64a15.735 15.735 0 0 0 15.733 0l28.822-16.64a15.734 15.734 0 0 0 7.866-13.624V32.485c0-5.62-2.999-10.812-7.866-13.622L52.56 2.222A15.722 15.722 0 0 0 44.693.115c-2.717 0-5.432.702-7.867 2.107z"/>
    </defs>
    <g fill="none" fill-rule="evenodd">
        <g transform="translate(5 .719)">
            <mask id="b" fill="#fff">
                <use xlink:href="#a"/>
            </mask>
            <path fill="#0F186D" d="M56.091 107.15h53.879V41.874H56.09z" mask="url(#b)"/>
            <path fill="#583889" d="M86.477 91.485L59.41 73.347l.127-.357 52.056 5.441.069.37-24.987 12.697z" mask="url(#b)"/>
            <path fill="#583889" d="M111.573 78.626l-52.056-5.442 27.07 18.138z" mask="url(#b)"/>
            <path fill="#582C7D" d="M47.017 106.936l-.177-.264 12.494-33.555.363-.014 15.616 34.464-.185.276z" mask="url(#b)"/>
            <path fill="#582C7D" d="M59.517 73.184l-12.493 33.557 28.11.906z" mask="url(#b)"/>
            <path fill="#583889" d="M74.956 107.729L59.339 73.266l.287-.243 27.07 18.138.05.275-11.451 16.324z" mask="url(#b)"/>
            <path fill="#583889" d="M59.517 73.184l15.617 34.463 11.452-16.324z" mask="url(#b)"/>
            <path fill="#5C518F" d="M59.497 73.38l-.158-.273 12.493-29.021.308-.07 39.562 34.463-.149.342z" mask="url(#b)"/>
            <path fill="#5C518F" d="M72.01 44.162L59.519 73.185l52.055 5.441z" mask="url(#b)"/>
            <path fill="#719560" d="M71.882 44.31l.19-.333 43.728 14.51.13.226-4.165 19.952-.32.108z" mask="url(#b)"/>
            <path fill="#719560" d="M72.01 44.162l39.563 34.464 4.165-19.952z" mask="url(#b)"/>
            <path fill="#719560" d="M71.95 44.349l.006-.374 55.179-16.325.238.256-11.451 30.835-.245.117z" mask="url(#b)"/>
            <path fill="#719560" d="M127.19 27.838L72.01 44.162l43.727 14.512z" mask="url(#b)"/>
            <path fill="#583889" d="M24.06 99.672l-.057-.343 35.399-26.3.3.224-12.495 33.556-.243.117z" mask="url(#b)"/>
            <path fill="#583889" d="M59.517 73.184L24.12 99.485l22.905 7.256z" mask="url(#b)"/>
            <path fill="#5C518F" d="M23.936 99.555L17.69 83.231l.137-.26 41.644-9.976.163.347-35.398 26.3z" mask="url(#b)"/>
            <path fill="#5C518F" d="M17.873 83.16l6.246 16.325 35.399-26.3z" mask="url(#b)"/>
            <path fill="#657079" d="M48.935 54.232l.093-.272 22.905-9.977.258.257-12.493 29.022-.352.017z" mask="url(#b)"/>
            <path fill="#657079" d="M72.01 44.162L49.108 54.14l10.41 19.046z" mask="url(#b)"/>
            <path fill="#626681" d="M17.74 83.018l31.233-29.023.305.05L59.69 73.091l-.127.284-41.645 9.976z" mask="url(#b)"/>
            <path fill="#626681" d="M49.106 54.139L17.873 83.16l41.644-9.976z" mask="url(#b)"/>
            <path fill="#77A853" d="M47.996 35.276l-.048-.34 22.904-17.23.313.148 1.042 26.301-.265.19z" mask="url(#b)"/>
            <path fill="#77A853" d="M70.97 17.862L48.065 35.093l23.946 9.07z" mask="url(#b)"/>
            <path fill="#6A816E" d="M48.911 54.15L47.87 35.103l.265-.194 23.946 9.07.009.362-22.906 9.977z" mask="url(#b)"/>
            <path fill="#6A816E" d="M72.01 44.162l-23.945-9.068 1.042 19.045z" mask="url(#b)"/>
            <path fill="#6A816E" d="M17.678 83.137l4.164-34.463.233-.169 27.07 5.443.094.334-31.233 29.022z" mask="url(#b)"/>
            <path fill="#6A816E" d="M49.106 54.139l-27.07-5.442-4.163 34.464z" mask="url(#b)"/>
            <path fill="#719560" d="M71.815 44.17l-1.04-26.3.229-.2 56.221 9.976.02.38L72.066 44.35z" mask="url(#b)"/>
            <path fill="#719560" d="M70.97 17.862l1.041 26.3 55.18-16.324z" mask="url(#b)"/>
            <path fill="#B7CD3E" d="M70.935 18.054l-.127-.303L83.301-.39l.268-.053 43.726 28.115-.139.357z" mask="url(#b)"/>
            <path fill="#B7CD3E" d="M83.463-.277L70.97 17.861l56.22 9.977z" mask="url(#b)"/>
            <path fill="#605C87" d="M-16.532 89.7l.012-.382 34.358-6.348.217.121 6.246 16.326-.229.26z" mask="url(#b)"/>
            <path fill="#605C87" d="M-16.485 89.51l40.604 9.976-6.246-16.326z" mask="url(#b)"/>
            <path fill="#719560" d="M21.998 48.89l-.052-.366L47.975 34.92l.285.162 1.041 19.046-.234.203z" mask="url(#b)"/>
            <path fill="#719560" d="M48.065 35.093L22.036 48.697l27.07 5.441z" mask="url(#b)"/>
            <path fill="#77A853" d="M21.842 48.674l3.125-25.394.283-.15 22.905 11.79.001.347L22.128 48.87z" mask="url(#b)"/>
            <path fill="#77A853" d="M25.16 23.303l-3.124 25.394 26.029-13.604z" mask="url(#b)"/>
            <path fill="#7FB947" d="M25.07 23.477l.067-.368 45.81-5.442.14.351L48.182 35.25l-.207.017z" mask="url(#b)"/>
            <path fill="#7FB947" d="M70.97 17.862l-45.81 5.44 22.905 11.791z" mask="url(#b)"/>
            <path fill="#687775" d="M-16.667 89.438l10.412-26.302.307-.077 23.945 19.952-.088.342-34.358 6.35z" mask="url(#b)"/>
            <path fill="#687775" d="M-6.073 63.208L-16.485 89.51l34.358-6.348z" mask="url(#b)"/>
            <path fill="#719560" d="M-6.199 63.359l.036-.324 28.11-14.51.284.196-4.164 34.464-.32.126z" mask="url(#b)"/>
            <path fill="#719560" d="M22.037 48.697l-28.11 14.51 23.946 19.954z" mask="url(#b)"/>
            <path fill="#77A853" d="M-6.268 63.195l2.08-29.929.297-.155 26.028 15.42-.01.34-28.11 14.511z" mask="url(#b)"/>
            <path fill="#77A853" d="M-3.99 33.28l-2.083 29.928 28.11-14.51z" mask="url(#b)"/>
            <path fill="#AACA40" d="M25.028 23.16L58.343-7.677l.31.058 12.492 25.394-.152.28-45.81 5.442z" mask="url(#b)"/>
            <path fill="#AACA40" d="M58.476-7.533L25.16 23.304 70.97 17.86z" mask="url(#b)"/>
            <path fill="#C6D23C" d="M70.794 17.948L58.3-7.446l.23-.274L83.517-.465l.106.298-12.493 18.14z" mask="url(#b)"/>
            <path fill="#C6D23C" d="M83.463-.277L58.476-7.533 70.97 17.861z" mask="url(#b)"/>
            <path fill="#7FB947" d="M-4.091 33.447l.036-.352 29.151-9.977.259.209-3.124 25.395-.294.144z" mask="url(#b)"/>
            <path fill="#7FB947" d="M25.16 23.303L-3.99 33.28l26.026 15.417z" mask="url(#b)"/>
            <path fill="#AACA40" d="M-4.187 33.28V6.071l.295-.17 29.151 17.232-.035.354-29.151 9.976z" mask="url(#b)"/>
            <path fill="#AACA40" d="M-3.99 6.071V33.28l29.15-9.975z" mask="url(#b)"/>
            <path fill="#C9D63B" d="M24.965 23.322l-3.123-32.65.204-.214 36.439 1.815.123.338-33.315 30.835z" mask="url(#b)"/>
            <path fill="#C9D63B" d="M58.476-7.533l-36.44-1.813 3.125 32.65z" mask="url(#b)"/>
            <path fill="#D1D739" d="M-4.09 6.24l-.001-.336L21.937-9.515l.295.15 3.123 32.65-.294.186z" mask="url(#b)"/>
            <path fill="#D1D739" d="M22.037-9.347L-3.991 6.071l29.152 17.232z" mask="url(#b)"/>
        </g>
        <g fill="#FFF">
            <path d="M31.722 39.343c0-.467.359-.827.828-.827h2.632V37.9l-.36-.615h-2.274a.813.813 0 0 1-.827-.828c0-.467.358-.827.827-.827h1.295l-2.801-4.605c-.148-.255-.296-.573-.296-.87 0-1.168 1.082-1.549 1.823-1.549.891 0 1.295.701 1.444.997l2.843 5.412 2.843-5.412c.15-.296.552-.997 1.44-.997.745 0 1.826.382 1.826 1.548 0 .298-.148.616-.295.87l-2.802 4.606h1.294c.466 0 .827.36.827.827 0 .468-.361.828-.827.828h-2.27l-.361.615v.616h2.632c.465 0 .827.36.827.827a.815.815 0 0 1-.827.828h-2.632v2.1c0 1.018-.617 1.699-1.675 1.699-1.06 0-1.675-.68-1.675-1.7v-2.1h-2.633a.812.812 0 0 1-.826-.827M46.56 41.22c.261-2.843 1.271-5.47 2.829-7.69-1.267-5.755-6.404-10.077-12.533-10.077-7.074 0-12.833 5.758-12.833 12.835 0 6.16 4.363 11.315 10.16 12.55a19.243 19.243 0 0 1 12.377-7.618M62.528 29.87c-6.478 0-11.838 4.832-12.7 11.079a19.14 19.14 0 0 1 6.934 1.355c.143-.328.437-.534.895-.534h.444c-.444-.636-.635-1.443-.635-2.27 0-2.63 2.334-4.477 5.327-4.477 3.716 0 5.517 1.995 5.517 3.65 0 .956-.657 1.485-1.592 1.485-1.867 0-.722-2.588-3.586-2.588-1.251 0-2.44.743-2.44 2.122 0 .721.36 1.443.7 2.08h2.314c.87 0 1.316.319 1.316 1.018 0 .7-.445 1.017-1.316 1.017h-1.678c.066.171.11.32.11.51 0 .342-.086.683-.219 1.014a19.343 19.343 0 0 1 1.942 1.872c.589.118 1.113.255 1.736.255.357 0 1.233-.233 1.568-.233.784 0 1.23.594 1.23 1.357 0 1.197-1.07 1.717-2.174 1.79a19.386 19.386 0 0 1 1.792 3.919c4.337-2.061 7.351-6.473 7.351-11.587-.003-7.075-5.76-12.834-12.836-12.834M50.543 61.723v5.25c1.59-.104 3.262-.847 3.262-2.598 0-1.805-1.834-2.335-3.262-2.652M45.979 55.436c0 1.329.982 2.096 2.97 2.496v-4.75c-1.806.055-2.97 1.114-2.97 2.254"/>
            <path d="M50.543 69.68v1.646c0 .452-.348.902-.798.902-.451 0-.796-.45-.796-.902v-1.645c-4.48-.105-6.712-2.785-6.712-4.882 0-1.06.636-1.671 1.645-1.671 2.97 0 .661 3.662 5.067 3.847v-5.544c-3.929-.716-6.31-2.44-6.31-5.385 0-3.606 2.994-5.464 6.31-5.57v-1.413c0-.452.345-.903.796-.903.45 0 .798.451.798.903v1.413c2.065.055 6.31 1.352 6.31 3.953 0 1.035-.772 1.642-1.673 1.642-1.722 0-1.7-2.833-4.636-2.89v5.04c3.501.743 6.602 1.777 6.602 5.865 0 3.553-2.655 5.358-6.603 5.595m-.85-25.531c-8.847 0-16.045 7.198-16.045 16.044 0 8.847 7.198 16.043 16.045 16.043 8.846 0 16.046-7.195 16.046-16.043 0-8.847-7.2-16.044-16.046-16.044"/>
        </g>
    </g>
</svg>
