<svg xmlns="http://www.w3.org/2000/svg" viewBox="0 0 100 100" width="100" height="100">

<defs>
	<linearGradient x1="24.5820312%" y1="7.52734375%" x2="66.4335938%" y2="100%" id="ka-gradient-green">
		<stop stop-color="#f2dc34" offset="0%"></stop>
		<stop stop-color="#7eba46" offset="100%"></stop>
	</linearGradient>
	<linearGradient x1="24.5820312%" y1="7.52734375%" x2="66.4335938%" y2="100%" id="ka-gradient-purple">
		<stop stop-color="#582b7b" offset="0%"></stop>
		<stop stop-color="#009AD7" offset="100%"></stop>
	</linearGradient>
</defs>
 
<g transform="translate(2.4, 7)" fill="url(#ka-gradient-green)" stroke="url(#ka-gradient-green)" stroke-width="3">
	<path d="M64.2319142,0 L30.7673781,0 C25.7538222,0 21.1200812,2.67484601 18.6133033,7.01802871 L1.88056046,35.9988506 C-0.627167019,40.3410837 -0.627167019,45.6917253 1.88056046,50.0339584 L18.6133033,79.0157298 C21.1200812,83.357963 25.7538222,86.0318595 30.7673781,86.0318595 L64.2319142,86.0318595 C69.2464196,86.0318595 73.8792111,83.357963 76.3869386,79.0157298 L93.1196814,50.0339584 C95.6264593,45.6917253 95.6264593,40.3410837 93.1196814,35.9988506 L76.3869386,7.01802871 C73.8792111,2.67484601 69.2464196,0 64.2319142,0"></path>
</g>

<g fill="#FFF">
            <path d="M31.722 39.343c0-.467.359-.827.828-.827h2.632V37.9l-.36-.615h-2.274a.813.813 0 0 1-.827-.828c0-.467.358-.827.827-.827h1.295l-2.801-4.605c-.148-.255-.296-.573-.296-.87 0-1.168 1.082-1.549 1.823-1.549.891 0 1.295.701 1.444.997l2.843 5.412 2.843-5.412c.15-.296.552-.997 1.44-.997.745 0 1.826.382 1.826 1.548 0 .298-.148.616-.295.87l-2.802 4.606h1.294c.466 0 .827.36.827.827 0 .468-.361.828-.827.828h-2.27l-.361.615v.616h2.632c.465 0 .827.36.827.827a.815.815 0 0 1-.827.828h-2.632v2.1c0 1.018-.617 1.699-1.675 1.699-1.06 0-1.675-.68-1.675-1.7v-2.1h-2.633a.812.812 0 0 1-.826-.827M46.56 41.22c.261-2.843 1.271-5.47 2.829-7.69-1.267-5.755-6.404-10.077-12.533-10.077-7.074 0-12.833 5.758-12.833 12.835 0 6.16 4.363 11.315 10.16 12.55a19.243 19.243 0 0 1 12.377-7.618M62.528 29.87c-6.478 0-11.838 4.832-12.7 11.079a19.14 19.14 0 0 1 6.934 1.355c.143-.328.437-.534.895-.534h.444c-.444-.636-.635-1.443-.635-2.27 0-2.63 2.334-4.477 5.327-4.477 3.716 0 5.517 1.995 5.517 3.65 0 .956-.657 1.485-1.592 1.485-1.867 0-.722-2.588-3.586-2.588-1.251 0-2.44.743-2.44 2.122 0 .721.36 1.443.7 2.08h2.314c.87 0 1.316.319 1.316 1.018 0 .7-.445 1.017-1.316 1.017h-1.678c.066.171.11.32.11.51 0 .342-.086.683-.219 1.014a19.343 19.343 0 0 1 1.942 1.872c.589.118 1.113.255 1.736.255.357 0 1.233-.233 1.568-.233.784 0 1.23.594 1.23 1.357 0 1.197-1.07 1.717-2.174 1.79a19.386 19.386 0 0 1 1.792 3.919c4.337-2.061 7.351-6.473 7.351-11.587-.003-7.075-5.76-12.834-12.836-12.834M50.543 61.723v5.25c1.59-.104 3.262-.847 3.262-2.598 0-1.805-1.834-2.335-3.262-2.652M45.979 55.436c0 1.329.982 2.096 2.97 2.496v-4.75c-1.806.055-2.97 1.114-2.97 2.254"/>
            <path d="M50.543 69.68v1.646c0 .452-.348.902-.798.902-.451 0-.796-.45-.796-.902v-1.645c-4.48-.105-6.712-2.785-6.712-4.882 0-1.06.636-1.671 1.645-1.671 2.97 0 .661 3.662 5.067 3.847v-5.544c-3.929-.716-6.31-2.44-6.31-5.385 0-3.606 2.994-5.464 6.31-5.57v-1.413c0-.452.345-.903.796-.903.45 0 .798.451.798.903v1.413c2.065.055 6.31 1.352 6.31 3.953 0 1.035-.772 1.642-1.673 1.642-1.722 0-1.7-2.833-4.636-2.89v5.04c3.501.743 6.602 1.777 6.602 5.865 0 3.553-2.655 5.358-6.603 5.595m-.85-25.531c-8.847 0-16.045 7.198-16.045 16.044 0 8.847 7.198 16.043 16.045 16.043 8.846 0 16.046-7.195 16.046-16.043 0-8.847-7.2-16.044-16.046-16.044"/>
        </g>

</svg>